<svg viewBox="0.001 0 713.496 713.496" width="713.496" height="713.496" xmlns="http://www.w3.org/2000/svg">
  <circle fill="#34E0A1" cx="356.749" cy="356.748" r="356.748"/>
  <path d="M 577.095 287.152 L 620.144 240.316 L 524.679 240.316 C 476.887 207.67 419.169 188.657 356.748 188.657 C 294.406 188.657 236.849 207.711 189.136 240.316 L 93.432 240.316 L 136.481 287.152 C 110.094 311.227 93.552 345.906 93.552 384.411 C 93.552 457.076 152.466 515.989 225.131 515.989 C 259.65 515.989 291.099 502.676 314.577 480.912 L 356.749 526.831 L 398.921 480.952 C 422.399 502.716 453.808 515.989 488.327 515.989 C 560.992 515.989 619.985 457.076 619.985 384.411 C 620.024 345.866 603.483 311.188 577.095 287.152 Z M 225.17 473.458 C 175.982 473.458 136.123 433.599 136.123 384.411 C 136.123 335.223 175.983 295.363 225.17 295.363 C 274.357 295.363 314.217 335.223 314.217 384.411 C 314.217 433.599 274.357 473.458 225.17 473.458 Z M 356.788 381.82 C 356.788 323.225 314.178 272.922 257.935 251.437 C 288.348 238.721 321.711 231.666 356.748 231.666 C 391.785 231.666 425.187 238.721 455.601 251.437 C 399.399 272.962 356.788 323.226 356.788 381.82 Z M 488.367 473.458 C 439.179 473.458 399.319 433.599 399.319 384.411 C 399.319 335.223 439.179 295.363 488.367 295.363 C 537.555 295.363 577.414 335.223 577.414 384.411 C 577.414 433.599 537.554 473.458 488.367 473.458 Z M 488.367 337.694 C 462.577 337.694 441.69 358.581 441.69 384.371 C 441.69 410.16 462.577 431.047 488.367 431.047 C 514.156 431.047 535.043 410.16 535.043 384.371 C 535.042 358.621 514.156 337.694 488.367 337.694 Z M 271.846 384.411 C 271.846 410.2 250.959 431.087 225.17 431.087 C 199.381 431.087 178.494 410.2 178.494 384.411 C 178.494 358.621 199.381 337.734 225.17 337.734 C 250.959 337.694 271.846 358.621 271.846 384.411 Z"/>
</svg>